<svg xmlns="http://www.w3.org/2000/svg" width="1920" height="1080" viewBox="0 0 1920 1080"><defs><linearGradient id="ph" x1="0" y1="0" x2=".3" y2="1"><stop offset="0" stop-color="#FDF6E8"/><stop offset=".62" stop-color="#EEF0F6"/><stop offset="1" stop-color="#E4E6EE"/></linearGradient><radialGradient id="sun" cx=".3" cy=".16" r=".55"><stop offset="0" stop-color="#FFECC8" stop-opacity=".95"/><stop offset="1" stop-color="#FFECC8" stop-opacity="0"/></radialGradient><radialGradient id="glow" cx=".5" cy=".24" r=".6"><stop offset="0" stop-color="#2E3A87" stop-opacity=".16"/><stop offset="1" stop-color="#2E3A87" stop-opacity="0"/></radialGradient><linearGradient id="im" x1="0" y1="0" x2=".7" y2="1"><stop offset="0" stop-color="#DFE7F7"/><stop offset="1" stop-color="#C4D2EC"/></linearGradient></defs><rect x="0" y="0" width="1920" height="1080" fill="url(#ph)"/><rect x="0" y="0" width="1920" height="1080" fill="url(#sun)"/><g opacity=".10"><path d="M0,1080 L0,807.4 C0,669.22 61.6,610 140.0,610 C218.4,610 280,669.22 280,807.4 L280,1080 Z" fill="#2E3A87"/><path d="M340,1080 L340,778.4 C340,625.52 410.4,560 500.0,560 C589.6,560 660,625.52 660,778.4 L660,1080 Z" fill="#2E3A87"/><path d="M720,1080 L720,807.4 C720,669.22 781.6,610 860.0,610 C938.4,610 1000,669.22 1000,807.4 L1000,1080 Z" fill="#2E3A87"/><path d="M1060,1080 L1060,761.0 C1060,599.3 1134.8,530 1230.0,530 C1325.2,530 1400,599.3 1400,761.0 L1400,1080 Z" fill="#2E3A87"/><path d="M1460,1080 L1460,807.4 C1460,669.22 1521.6,610 1600.0,610 C1678.4,610 1740,669.22 1740,807.4 L1740,1080 Z" fill="#2E3A87"/></g><rect x="0" y="0" width="1920" height="1080" fill="#F4F2EC" opacity="0.5"/><text x="58" y="86" font-family="Avenir Next Condensed, Avenir Next, Helvetica Neue, sans-serif" font-size="52" font-weight="600" fill="#14161F" text-anchor="start" letter-spacing="5.20">MASJID AL-FALAH</text><text x="58" y="118" font-family="Avenir Next Condensed, Avenir Next, Helvetica Neue, sans-serif" font-size="21" font-weight="400" fill="#6B7186" text-anchor="start" letter-spacing="6.30">JAKARTA SELATAN</text><text x="1862" y="80" font-family="Baghdad, Geeza Pro, serif" font-size="30" font-weight="400" fill="#2E3A87" text-anchor="end">١٧ ربيع الأول ١٤٤٧</text><text x="1862" y="116" font-family="Avenir Next Condensed, Avenir Next, Helvetica Neue, sans-serif" font-size="20" font-weight="400" fill="#6B7186" text-anchor="end" letter-spacing="4.40">SENIN, 31 AGUSTUS 2026</text><rect x="58" y="142" width="1804" height="2" fill="#14161F"/><rect x="58" y="218" width="1216" height="420" fill="#FFFFFF"/><rect x="58" y="218" width="1216" height="344" fill="url(#im)"/><g opacity=".26" fill="#2E3A87"><circle cx="666.0" cy="468" r="106"/><rect x="659.0" y="270" width="14" height="120"/><rect x="288" y="368" width="72" height="194" rx="36"/><rect x="972" y="368" width="72" height="194" rx="36"/></g><rect x="58" y="562" width="1216" height="2" fill="#DCD8CE"/><text x="84" y="614" font-family="Avenir Next Condensed, Avenir Next, Helvetica Neue, sans-serif" font-size="26" font-weight="400" fill="#14161F" text-anchor="start">Kegiatan Ramadan 1447 H</text><text x="1248" y="614" font-family="Menlo, monospace" font-size="18" font-weight="400" fill="#6B7186" text-anchor="end">3 / 6</text><rect x="58.0" y="654" width="196.0" height="4" fill="#B4BAC9"/><rect x="262.0" y="654" width="196.0" height="4" fill="#B4BAC9"/><rect x="466.0" y="654" width="196.0" height="4" fill="#DCD8CE"/><rect x="466.0" y="654" width="121.52" height="4" fill="#2E3A87"/><rect x="670.0" y="654" width="196.0" height="4" fill="#DCD8CE"/><rect x="874.0" y="654" width="196.0" height="4" fill="#DCD8CE"/><rect x="1078.0" y="654" width="196.0" height="4" fill="#DCD8CE"/><text x="1862" y="400" font-family="Avenir Next Condensed, Avenir Next, Helvetica Neue, sans-serif" font-size="186" font-weight="600" fill="#14161F" text-anchor="end">10:41</text><text x="1862" y="444" font-family="Avenir Next Condensed, Avenir Next, Helvetica Neue, sans-serif" font-size="20" font-weight="400" fill="#6B7186" text-anchor="end" letter-spacing="6.00">WIB</text><path d="M58.0,948 L58.0,841.28 C58.0,787.184 112.05714285714285,764 180.85714285714286,764 C249.65714285714287,764 303.7142857142857,787.184 303.7142857142857,841.28 L303.7142857142857,948" fill="none" stroke="#DCD8CE" stroke-width="2"/><text x="180.85714285714286" y="822" font-family="Avenir Next Condensed, Avenir Next, Helvetica Neue, sans-serif" font-size="22" font-weight="400" fill="#A9AEBC" text-anchor="middle" letter-spacing="4.40">IMSAK</text><text x="180.85714285714286" y="850" font-family="Baghdad, Geeza Pro, serif" font-size="18" font-weight="400" fill="#A9AEBC" text-anchor="middle">إمساك</text><text x="180.85714285714286" y="910" font-family="Avenir Next Condensed, Avenir Next, Helvetica Neue, sans-serif" font-size="41" font-weight="600" fill="#A9AEBC" text-anchor="middle">04:28</text><path d="M317.7142857142857,948 L317.7142857142857,841.28 C317.7142857142857,787.184 371.7714285714286,764 440.57142857142856,764 C509.3714285714286,764 563.4285714285714,787.184 563.4285714285714,841.28 L563.4285714285714,948" fill="none" stroke="#DCD8CE" stroke-width="2"/><text x="440.57142857142856" y="822" font-family="Avenir Next Condensed, Avenir Next, Helvetica Neue, sans-serif" font-size="22" font-weight="400" fill="#A9AEBC" text-anchor="middle" letter-spacing="4.40">SUBUH</text><text x="440.57142857142856" y="850" font-family="Baghdad, Geeza Pro, serif" font-size="18" font-weight="400" fill="#A9AEBC" text-anchor="middle">الفجر</text><text x="440.57142857142856" y="910" font-family="Avenir Next Condensed, Avenir Next, Helvetica Neue, sans-serif" font-size="41" font-weight="600" fill="#A9AEBC" text-anchor="middle">04:38</text><path d="M577.4285714285714,948 L577.4285714285714,841.28 C577.4285714285714,787.184 631.4857142857143,764 700.2857142857143,764 C769.0857142857143,764 823.1428571428571,787.184 823.1428571428571,841.28 L823.1428571428571,948" fill="none" stroke="#DCD8CE" stroke-width="2"/><text x="700.2857142857143" y="822" font-family="Avenir Next Condensed, Avenir Next, Helvetica Neue, sans-serif" font-size="22" font-weight="400" fill="#A9AEBC" text-anchor="middle" letter-spacing="4.40">TERBIT</text><text x="700.2857142857143" y="850" font-family="Baghdad, Geeza Pro, serif" font-size="18" font-weight="400" fill="#A9AEBC" text-anchor="middle">الشروق</text><text x="700.2857142857143" y="910" font-family="Avenir Next Condensed, Avenir Next, Helvetica Neue, sans-serif" font-size="41" font-weight="600" fill="#A9AEBC" text-anchor="middle">05:53</text><path d="M837.1428571428571,948 L837.1428571428571,811.12 C837.1428571428571,741.736 891.1999999999999,712 960.0,712 C1028.8,712 1082.857142857143,741.736 1082.857142857143,811.12 L1082.857142857143,948 Z" fill="#FFFFFF"/><path d="M837.1428571428571,948 L837.1428571428571,811.12 C837.1428571428571,741.736 891.1999999999999,712 960.0,712 C1028.8,712 1082.857142857143,741.736 1082.857142857143,811.12 L1082.857142857143,948 Z" fill="url(#glow)"/><path d="M837.1428571428571,948 L837.1428571428571,811.12 C837.1428571428571,741.736 891.1999999999999,712 960.0,712 C1028.8,712 1082.857142857143,741.736 1082.857142857143,811.12 L1082.857142857143,948" fill="none" stroke="#2E3A87" stroke-width="2"/><text x="960.0" y="770" font-family="Avenir Next Condensed, Avenir Next, Helvetica Neue, sans-serif" font-size="22" font-weight="400" fill="#2E3A87" text-anchor="middle" letter-spacing="4.40">DZUHUR</text><text x="960.0" y="798" font-family="Baghdad, Geeza Pro, serif" font-size="18" font-weight="400" fill="#6B7186" text-anchor="middle">الظهر</text><text x="960.0" y="858" font-family="Avenir Next Condensed, Avenir Next, Helvetica Neue, sans-serif" font-size="47" font-weight="600" fill="#14161F" text-anchor="middle">11:56</text><text x="960.0" y="902" font-family="Menlo, monospace" font-size="23" font-weight="400" fill="#2E3A87" text-anchor="middle">−01:14:37</text><path d="M1096.857142857143,948 L1096.857142857143,841.28 C1096.857142857143,787.184 1150.9142857142858,764 1219.7142857142858,764 C1288.5142857142857,764 1342.5714285714287,787.184 1342.5714285714287,841.28 L1342.5714285714287,948 Z" fill="#FFFFFF" opacity="0.6"/><path d="M1096.857142857143,948 L1096.857142857143,841.28 C1096.857142857143,787.184 1150.9142857142858,764 1219.7142857142858,764 C1288.5142857142857,764 1342.5714285714287,787.184 1342.5714285714287,841.28 L1342.5714285714287,948" fill="none" stroke="#DCD8CE" stroke-width="2"/><text x="1219.7142857142858" y="822" font-family="Avenir Next Condensed, Avenir Next, Helvetica Neue, sans-serif" font-size="22" font-weight="400" fill="#14161F" text-anchor="middle" letter-spacing="4.40">ASHAR</text><text x="1219.7142857142858" y="850" font-family="Baghdad, Geeza Pro, serif" font-size="18" font-weight="400" fill="#6B7186" text-anchor="middle">العصر</text><text x="1219.7142857142858" y="910" font-family="Avenir Next Condensed, Avenir Next, Helvetica Neue, sans-serif" font-size="41" font-weight="600" fill="#14161F" text-anchor="middle">15:14</text><path d="M1356.5714285714287,948 L1356.5714285714287,841.28 C1356.5714285714287,787.184 1410.6285714285716,764 1479.4285714285716,764 C1548.2285714285715,764 1602.2857142857144,787.184 1602.2857142857144,841.28 L1602.2857142857144,948 Z" fill="#FFFFFF" opacity="0.6"/><path d="M1356.5714285714287,948 L1356.5714285714287,841.28 C1356.5714285714287,787.184 1410.6285714285716,764 1479.4285714285716,764 C1548.2285714285715,764 1602.2857142857144,787.184 1602.2857142857144,841.28 L1602.2857142857144,948" fill="none" stroke="#DCD8CE" stroke-width="2"/><text x="1479.4285714285716" y="822" font-family="Avenir Next Condensed, Avenir Next, Helvetica Neue, sans-serif" font-size="22" font-weight="400" fill="#14161F" text-anchor="middle" letter-spacing="4.40">MAGHRIB</text><text x="1479.4285714285716" y="850" font-family="Baghdad, Geeza Pro, serif" font-size="18" font-weight="400" fill="#6B7186" text-anchor="middle">المغرب</text><text x="1479.4285714285716" y="910" font-family="Avenir Next Condensed, Avenir Next, Helvetica Neue, sans-serif" font-size="41" font-weight="600" fill="#14161F" text-anchor="middle">17:52</text><path d="M1616.2857142857142,948 L1616.2857142857142,841.28 C1616.2857142857142,787.184 1670.3428571428572,764 1739.142857142857,764 C1807.942857142857,764 1862.0,787.184 1862.0,841.28 L1862.0,948 Z" fill="#FFFFFF" opacity="0.6"/><path d="M1616.2857142857142,948 L1616.2857142857142,841.28 C1616.2857142857142,787.184 1670.3428571428572,764 1739.142857142857,764 C1807.942857142857,764 1862.0,787.184 1862.0,841.28 L1862.0,948" fill="none" stroke="#DCD8CE" stroke-width="2"/><text x="1739.142857142857" y="822" font-family="Avenir Next Condensed, Avenir Next, Helvetica Neue, sans-serif" font-size="22" font-weight="400" fill="#14161F" text-anchor="middle" letter-spacing="4.40">ISYA</text><text x="1739.142857142857" y="850" font-family="Baghdad, Geeza Pro, serif" font-size="18" font-weight="400" fill="#6B7186" text-anchor="middle">العشاء</text><text x="1739.142857142857" y="910" font-family="Avenir Next Condensed, Avenir Next, Helvetica Neue, sans-serif" font-size="41" font-weight="600" fill="#14161F" text-anchor="middle">19:02</text><rect x="58" y="986" width="1804" height="2" fill="#14161F"/><text x="58" y="1030" font-family="Avenir Next Condensed, Avenir Next, Helvetica Neue, sans-serif" font-size="27" font-weight="400" fill="#14161F" text-anchor="start">Infak pembangunan menara telah mencapai Rp 412.750.000 — terima kasih atas dukungan jamaah   ·   Kerja bakti kebersihan masjid Sabtu ba'da Subuh</text></svg>